<svg xmlns="http://www.w3.org/2000/svg" viewBox="0 0 64 64" fill="none">
  <defs>
    <linearGradient id="a" x1="14" y1="6" x2="50" y2="58" gradientUnits="userSpaceOnUse">
      <stop stop-color="#0b4f66" />
      <stop offset="1" stop-color="#0f766e" />
    </linearGradient>
  </defs>
  <path
    d="M32 6C22.2 16.6 14.5 27.4 14.5 39.4C14.5 50.5 22.1 58 32 58C41.9 58 49.5 50.5 49.5 39.4C49.5 27.4 41.8 16.6 32 6Z"
    fill="url(#a)"
  />
  <path
    d="M21.5 35.2C26.2 29.9 29.8 27.2 32 27.2C34.2 27.2 37.8 29.9 42.5 35.2"
    stroke="#f4fbfa"
    stroke-width="4.4"
    stroke-linecap="round"
    stroke-linejoin="round"
  />
  <path
    d="M24 42.6C27.2 45.8 29.7 47.4 32 47.4C34.3 47.4 36.8 45.8 40 42.6"
    stroke="#d8ece8"
    stroke-width="3.4"
    stroke-linecap="round"
    stroke-linejoin="round"
  />
  <circle cx="25.5" cy="21.5" r="2.8" fill="#edf8f6" />
</svg>
